<svg xmlns="http://www.w3.org/2000/svg" viewBox="0 0 24 24" fill="none">
  <defs>
    <!-- Neutral Checkerboard Pattern for the brushed swoosh -->
    <pattern id="brush-checker" width="4" height="4" patternUnits="userSpaceOnUse">
      <rect width="4" height="4" fill="#ffffff" />
      <rect width="2" height="2" fill="#cbd5e1" />
      <rect x="2" y="2" width="2" height="2" fill="#cbd5e1" />
    </pattern>
  </defs>

  <!-- Clean neutral card background -->
  <rect x="2" y="2" width="20" height="20" rx="5" fill="#f1f5f9" stroke="#cbd5e1" stroke-width="0.75" />

  <!-- The transparent checkerboard brush stroke swoosh -->
  <path d="M2 13C6 11 10 16 14 13.5L13.5 15.5C10 18 6 13 2 15.5V13Z" fill="url(#brush-checker)" fill-opacity="0.9" />
  
  <!-- Clean Slate Gray Silhouette -->
  <circle cx="8" cy="8.5" r="2.5" fill="#475569" />
  <path d="M4 17C4 14.2 5.8 12.5 8 12.5C10.2 12.5 12 14.2 12 17H4Z" fill="#475569" />

  <!-- The Paintbrush -->
  <!-- Handle -->
  <line x1="14" y1="11" x2="19.5" y2="5.5" stroke="#94a3b8" stroke-width="2" stroke-linecap="round" />
  <!-- Ferrule -->
  <line x1="12.5" y1="9.5" x2="15.5" y2="12.5" stroke="#334155" stroke-width="2.5" stroke-linecap="round" />
  <!-- Bristles -->
  <polygon points="12.5,9.5 15.5,12.5 11,14.5" fill="#1e293b" />
</svg>